<mxfile host="app.diagrams.net" modified="2023-06-02T18:23:33.303Z" agent="Mozilla/5.0 (Windows NT 10.0; Win64; x64; rv:109.0) Gecko/20100101 Firefox/112.0" etag="1EXD42AMc8-qJWB3Ns_j" version="21.2.3" type="device">
  <diagram name="Page-1" id="NabCjkw0_VfunR1PNwgm">
    <mxGraphModel dx="1900" dy="530" grid="1" gridSize="10" guides="1" tooltips="1" connect="1" arrows="1" fold="1" page="1" pageScale="1" pageWidth="850" pageHeight="1100" math="0" shadow="0">
      <root>
        <mxCell id="0" />
        <mxCell id="1" parent="0" />
        <mxCell id="q-XpKDk882EQ5nKMgqV2-1" value="" style="verticalLabelPosition=bottom;verticalAlign=top;html=1;shape=mxgraph.basic.patternFillRect;fillStyle=diag;step=5;fillStrokeWidth=0.2;fillStrokeColor=#dddddd;fillColor=#f5f5f5;fontColor=#333333;strokeColor=#666666;" vertex="1" parent="1">
          <mxGeometry x="80" y="80" width="360" height="280" as="geometry" />
        </mxCell>
        <mxCell id="q-XpKDk882EQ5nKMgqV2-3" value="Account state" style="swimlane;fontStyle=0;childLayout=stackLayout;horizontal=1;startSize=30;horizontalStack=0;resizeParent=1;resizeParentMax=0;resizeLast=0;collapsible=1;marginBottom=0;whiteSpace=wrap;html=1;fontSize=16;fillColor=#dae8fc;strokeColor=#6c8ebf;rounded=0;" vertex="1" parent="1">
          <mxGeometry x="270" y="160" width="140" height="150" as="geometry" />
        </mxCell>
        <mxCell id="q-XpKDk882EQ5nKMgqV2-4" value="nonce" style="text;strokeColor=default;fillColor=default;align=left;verticalAlign=middle;spacingLeft=4;spacingRight=4;overflow=hidden;points=[[0,0.5],[1,0.5]];portConstraint=eastwest;rotatable=0;whiteSpace=wrap;html=1;fontSize=14;" vertex="1" parent="q-XpKDk882EQ5nKMgqV2-3">
          <mxGeometry y="30" width="140" height="30" as="geometry" />
        </mxCell>
        <mxCell id="q-XpKDk882EQ5nKMgqV2-5" value="balance" style="text;strokeColor=default;fillColor=default;align=left;verticalAlign=middle;spacingLeft=4;spacingRight=4;overflow=hidden;points=[[0,0.5],[1,0.5]];portConstraint=eastwest;rotatable=0;whiteSpace=wrap;html=1;fontSize=14;" vertex="1" parent="q-XpKDk882EQ5nKMgqV2-3">
          <mxGeometry y="60" width="140" height="30" as="geometry" />
        </mxCell>
        <mxCell id="q-XpKDk882EQ5nKMgqV2-6" value="storageRoot" style="text;align=left;verticalAlign=middle;spacingLeft=4;spacingRight=4;overflow=hidden;points=[[0,0.5],[1,0.5]];portConstraint=eastwest;rotatable=0;whiteSpace=wrap;html=1;fillColor=none;labelBackgroundColor=none;fontColor=#7A7A7A;fontSize=14;" vertex="1" parent="q-XpKDk882EQ5nKMgqV2-3">
          <mxGeometry y="90" width="140" height="30" as="geometry" />
        </mxCell>
        <mxCell id="q-XpKDk882EQ5nKMgqV2-7" value="codeHash" style="text;strokeColor=none;fillColor=none;align=left;verticalAlign=middle;spacingLeft=4;spacingRight=4;overflow=hidden;points=[[0,0.5],[1,0.5]];portConstraint=eastwest;rotatable=0;whiteSpace=wrap;html=1;fontColor=#7A7A7A;fontSize=14;" vertex="1" parent="q-XpKDk882EQ5nKMgqV2-3">
          <mxGeometry y="120" width="140" height="30" as="geometry" />
        </mxCell>
        <mxCell id="q-XpKDk882EQ5nKMgqV2-12" style="edgeStyle=orthogonalEdgeStyle;rounded=0;orthogonalLoop=1;jettySize=auto;html=1;exitX=1;exitY=0.5;exitDx=0;exitDy=0;" edge="1" parent="1" source="q-XpKDk882EQ5nKMgqV2-8" target="q-XpKDk882EQ5nKMgqV2-3">
          <mxGeometry relative="1" as="geometry" />
        </mxCell>
        <mxCell id="q-XpKDk882EQ5nKMgqV2-8" value="Address" style="rounded=1;whiteSpace=wrap;html=1;fontSize=16;" vertex="1" parent="1">
          <mxGeometry x="110" y="140" width="100" height="50" as="geometry" />
        </mxCell>
        <mxCell id="q-XpKDk882EQ5nKMgqV2-9" value="Externally owned account" style="text;html=1;strokeColor=none;fillColor=none;align=center;verticalAlign=middle;whiteSpace=wrap;rounded=0;fontSize=16;fontStyle=1" vertex="1" parent="1">
          <mxGeometry x="155" y="90" width="210" height="30" as="geometry" />
        </mxCell>
        <mxCell id="q-XpKDk882EQ5nKMgqV2-13" value="" style="verticalLabelPosition=bottom;verticalAlign=top;html=1;shape=mxgraph.basic.patternFillRect;fillStyle=diag;step=5;fillStrokeWidth=0.2;fillStrokeColor=#dddddd;fillColor=#f5f5f5;fontColor=#333333;strokeColor=#666666;" vertex="1" parent="1">
          <mxGeometry x="480" y="80" width="360" height="280" as="geometry" />
        </mxCell>
        <mxCell id="q-XpKDk882EQ5nKMgqV2-14" value="Account state" style="swimlane;fontStyle=0;childLayout=stackLayout;horizontal=1;startSize=30;horizontalStack=0;resizeParent=1;resizeParentMax=0;resizeLast=0;collapsible=1;marginBottom=0;whiteSpace=wrap;html=1;fontSize=16;fillColor=#dae8fc;strokeColor=#6c8ebf;rounded=0;" vertex="1" parent="1">
          <mxGeometry x="670" y="160" width="140" height="150" as="geometry" />
        </mxCell>
        <mxCell id="q-XpKDk882EQ5nKMgqV2-15" value="nonce" style="text;strokeColor=default;fillColor=default;align=left;verticalAlign=middle;spacingLeft=4;spacingRight=4;overflow=hidden;points=[[0,0.5],[1,0.5]];portConstraint=eastwest;rotatable=0;whiteSpace=wrap;html=1;fontSize=14;" vertex="1" parent="q-XpKDk882EQ5nKMgqV2-14">
          <mxGeometry y="30" width="140" height="30" as="geometry" />
        </mxCell>
        <mxCell id="q-XpKDk882EQ5nKMgqV2-16" value="balance" style="text;strokeColor=default;fillColor=default;align=left;verticalAlign=middle;spacingLeft=4;spacingRight=4;overflow=hidden;points=[[0,0.5],[1,0.5]];portConstraint=eastwest;rotatable=0;whiteSpace=wrap;html=1;fontSize=14;" vertex="1" parent="q-XpKDk882EQ5nKMgqV2-14">
          <mxGeometry y="60" width="140" height="30" as="geometry" />
        </mxCell>
        <mxCell id="q-XpKDk882EQ5nKMgqV2-17" value="&lt;font style=&quot;font-size: 14px;&quot; color=&quot;#000000&quot;&gt;storageRoot&lt;/font&gt;" style="text;align=left;verticalAlign=middle;spacingLeft=4;spacingRight=4;overflow=hidden;points=[[0,0.5],[1,0.5]];portConstraint=eastwest;rotatable=0;whiteSpace=wrap;html=1;fillColor=#d5e8d4;labelBackgroundColor=none;strokeColor=#82b366;fontSize=14;" vertex="1" parent="q-XpKDk882EQ5nKMgqV2-14">
          <mxGeometry y="90" width="140" height="30" as="geometry" />
        </mxCell>
        <mxCell id="q-XpKDk882EQ5nKMgqV2-18" value="codeHash" style="text;strokeColor=#82b366;fillColor=#d5e8d4;align=left;verticalAlign=middle;spacingLeft=4;spacingRight=4;overflow=hidden;points=[[0,0.5],[1,0.5]];portConstraint=eastwest;rotatable=0;whiteSpace=wrap;html=1;fontSize=14;" vertex="1" parent="q-XpKDk882EQ5nKMgqV2-14">
          <mxGeometry y="120" width="140" height="30" as="geometry" />
        </mxCell>
        <mxCell id="q-XpKDk882EQ5nKMgqV2-19" style="edgeStyle=orthogonalEdgeStyle;rounded=0;orthogonalLoop=1;jettySize=auto;html=1;exitX=1;exitY=0.5;exitDx=0;exitDy=0;" edge="1" source="q-XpKDk882EQ5nKMgqV2-20" target="q-XpKDk882EQ5nKMgqV2-14" parent="1">
          <mxGeometry relative="1" as="geometry" />
        </mxCell>
        <mxCell id="q-XpKDk882EQ5nKMgqV2-20" value="Address" style="rounded=1;whiteSpace=wrap;html=1;fontSize=16;" vertex="1" parent="1">
          <mxGeometry x="520" y="140" width="100" height="50" as="geometry" />
        </mxCell>
        <mxCell id="q-XpKDk882EQ5nKMgqV2-21" value="Contract account" style="text;html=1;strokeColor=none;fillColor=none;align=center;verticalAlign=middle;whiteSpace=wrap;rounded=0;fontSize=16;fontStyle=1" vertex="1" parent="1">
          <mxGeometry x="555" y="90" width="210" height="30" as="geometry" />
        </mxCell>
        <mxCell id="q-XpKDk882EQ5nKMgqV2-22" value="&lt;font style=&quot;font-size: 16px;&quot;&gt;storage&lt;/font&gt;" style="shape=cylinder3;whiteSpace=wrap;html=1;boundedLbl=1;backgroundOutline=1;size=15;" vertex="1" parent="1">
          <mxGeometry x="520" y="205" width="100" height="85" as="geometry" />
        </mxCell>
        <mxCell id="q-XpKDk882EQ5nKMgqV2-23" value="&lt;font style=&quot;font-size: 16px;&quot;&gt;code&lt;/font&gt;" style="shape=note;whiteSpace=wrap;html=1;backgroundOutline=1;darkOpacity=0.05;" vertex="1" parent="1">
          <mxGeometry x="520" y="300" width="100" height="50" as="geometry" />
        </mxCell>
        <mxCell id="q-XpKDk882EQ5nKMgqV2-24" style="edgeStyle=orthogonalEdgeStyle;rounded=0;orthogonalLoop=1;jettySize=auto;html=1;exitX=0;exitY=0.5;exitDx=0;exitDy=0;entryX=1;entryY=0.5;entryDx=0;entryDy=0;entryPerimeter=0;dashed=1;" edge="1" parent="1" source="q-XpKDk882EQ5nKMgqV2-17" target="q-XpKDk882EQ5nKMgqV2-22">
          <mxGeometry relative="1" as="geometry" />
        </mxCell>
        <mxCell id="q-XpKDk882EQ5nKMgqV2-26" style="edgeStyle=orthogonalEdgeStyle;rounded=0;orthogonalLoop=1;jettySize=auto;html=1;exitX=0;exitY=0.5;exitDx=0;exitDy=0;entryX=0;entryY=0;entryDx=100;entryDy=30;entryPerimeter=0;dashed=1;" edge="1" parent="1" source="q-XpKDk882EQ5nKMgqV2-18" target="q-XpKDk882EQ5nKMgqV2-23">
          <mxGeometry relative="1" as="geometry" />
        </mxCell>
        <mxCell id="q-XpKDk882EQ5nKMgqV2-29" value="" style="edgeStyle=orthogonalEdgeStyle;rounded=0;orthogonalLoop=1;jettySize=auto;html=1;" edge="1" parent="1" source="q-XpKDk882EQ5nKMgqV2-28" target="q-XpKDk882EQ5nKMgqV2-1">
          <mxGeometry relative="1" as="geometry">
            <Array as="points">
              <mxPoint x="60" y="110" />
              <mxPoint x="60" y="220" />
            </Array>
          </mxGeometry>
        </mxCell>
        <mxCell id="q-XpKDk882EQ5nKMgqV2-28" value="&lt;font style=&quot;font-size: 14px;&quot;&gt;External actor&lt;/font&gt;" style="shape=umlActor;verticalLabelPosition=bottom;verticalAlign=top;html=1;outlineConnect=0;" vertex="1" parent="1">
          <mxGeometry x="-10" y="80" width="30" height="60" as="geometry" />
        </mxCell>
      </root>
    </mxGraphModel>
  </diagram>
</mxfile>
